<?xml version="1.0" standalone="no"?>
<!DOCTYPE svg PUBLIC "-//W3C//DTD SVG 20010904//EN"
 "http://www.w3.org/TR/2001/REC-SVG-20010904/DTD/svg10.dtd">
<svg version="1.0" xmlns="http://www.w3.org/2000/svg"
 width="1280.000000pt" height="968.000000pt" viewBox="0 0 1280.000000 968.000000"
 preserveAspectRatio="xMidYMid meet">
<g transform="translate(0.000000,968.000000) scale(0.100000,-0.100000)"
fill="#000000" stroke="none">
<path d="M7445 9430 c-534 -21 -992 -143 -1329 -355 -144 -90 -351 -251 -464
-359 -419 -404 -628 -902 -584 -1393 33 -376 182 -636 457 -796 73 -42 271
-121 374 -149 112 -30 333 -30 454 0 238 59 444 212 560 414 38 65 84 209 96
301 21 151 7 348 -35 487 -35 119 -144 299 -294 485 -89 111 -119 160 -131
215 -22 104 28 252 119 350 44 48 51 52 117 62 110 16 353 5 455 -22 400 -105
612 -417 696 -1020 13 -94 18 -198 18 -420 1 -319 -6 -402 -55 -665 -68 -370
-163 -634 -389 -1087 -183 -364 -243 -498 -311 -691 -112 -318 -129 -427 -129
-859 l0 -337 124 -133 124 -133 243 8 c134 5 245 9 245 10 1 1 11 106 23 232
33 365 84 633 143 748 51 102 134 204 233 289 38 33 263 188 499 345 570 378
648 436 844 627 238 232 391 442 513 704 132 282 193 581 193 952 0 507 -134
916 -423 1290 -79 102 -259 285 -357 362 -308 243 -686 401 -1154 482 -173 30
-289 41 -610 60 -36 2 -155 0 -265 -4z"/>
<path d="M2892 5579 c-277 -49 -519 -286 -596 -585 -38 -146 -7 -261 110 -414
155 -204 392 -342 745 -435 192 -51 223 -64 244 -105 15 -29 15 -30 -24 -69
-32 -32 -40 -49 -49 -100 -6 -35 -28 -99 -48 -144 -20 -45 -50 -120 -66 -167
-23 -68 -39 -96 -79 -139 -30 -32 -57 -74 -66 -100 -8 -25 -26 -56 -39 -69
-32 -30 -39 -64 -20 -100 13 -25 13 -32 1 -48 -23 -30 -17 -68 16 -110 49 -63
143 -85 173 -42 22 30 20 54 -4 71 -20 14 -20 14 5 31 21 14 25 24 24 54 -3
48 8 82 27 82 27 0 56 40 49 67 -3 15 0 34 10 49 12 19 21 22 44 18 37 -8 75
26 68 62 -4 21 1 24 51 35 79 16 121 39 129 68 6 22 7 23 19 6 7 -10 25 -68
40 -130 l26 -113 -22 -74 c-16 -50 -25 -112 -30 -198 -6 -112 -10 -131 -37
-185 -46 -89 -149 -366 -244 -650 -79 -239 -85 -253 -142 -328 -120 -159 -244
-373 -437 -753 -46 -91 -73 -166 -85 -235 -6 -30 -3 -40 17 -59 61 -57 283
-160 427 -196 165 -42 211 -28 211 64 0 56 -8 69 -112 181 -94 101 -163 226
-148 266 32 84 301 524 398 650 50 66 334 617 435 844 20 47 39 82 42 79 3 -3
12 -81 20 -174 16 -175 34 -326 40 -333 3 -2 -11 -22 -30 -45 -100 -122 -197
-453 -196 -666 1 -107 26 -230 53 -256 25 -24 149 -72 273 -105 184 -50 338
-18 346 71 7 79 -20 114 -165 214 -44 29 -115 85 -158 122 l-80 69 7 55 c12
96 100 344 150 423 50 78 47 68 69 302 20 207 20 368 2 540 -8 76 -12 176 -9
241 7 133 -10 280 -43 384 -13 41 -22 75 -20 77 1 2 34 -10 72 -25 38 -16 124
-48 192 -72 111 -40 129 -50 175 -97 56 -58 93 -79 151 -88 26 -4 53 -20 85
-49 76 -71 118 -84 145 -44 24 34 8 57 -86 120 -86 56 -26 63 74 7 80 -44 138
-37 138 17 0 26 -33 52 -107 84 -29 12 -53 27 -53 33 0 14 65 1 111 -23 89
-46 152 -5 99 63 -11 14 -20 40 -20 60 0 41 -30 82 -65 91 -14 4 -30 17 -35
31 -14 37 -53 42 -114 15 -28 -12 -82 -30 -119 -39 -38 -10 -89 -33 -114 -50
-30 -21 -54 -31 -67 -28 -12 3 -84 32 -161 65 -77 32 -189 78 -248 100 -79 30
-120 52 -152 81 -74 68 -237 184 -279 199 -50 17 -121 74 -141 112 -19 36 -19
101 -1 144 7 18 41 73 75 123 78 115 101 179 101 280 0 105 -24 167 -155 415
-128 241 -163 297 -220 343 -49 41 -165 96 -250 120 -71 19 -277 28 -353 14z
m668 -1990 c0 -3 -13 -6 -29 -7 -15 0 -45 -8 -66 -16 -21 -9 -41 -16 -46 -16
-16 0 -10 31 18 93 l27 60 48 -54 c26 -30 48 -57 48 -60z"/>
<path d="M7159 2805 c-341 -64 -644 -300 -794 -617 -101 -211 -122 -503 -53
-727 20 -67 168 -402 240 -545 108 -217 278 -383 492 -482 209 -96 485 -116
735 -53 368 93 693 396 815 760 84 249 70 554 -33 775 -57 122 -102 183 -241
334 -317 343 -393 410 -543 480 -133 62 -220 81 -392 86 -103 2 -174 -1 -226
-11z"/>
</g>
</svg>
