<?xml version="1.0" standalone="no"?>
<!DOCTYPE svg PUBLIC "-//W3C//DTD SVG 20010904//EN"
 "http://www.w3.org/TR/2001/REC-SVG-20010904/DTD/svg10.dtd">
<svg version="1.0" xmlns="http://www.w3.org/2000/svg"
 width="853.000000pt" height="1280.000000pt" viewBox="0 0 853.000000 1280.000000"
 preserveAspectRatio="xMidYMid meet">
<g transform="translate(0.000000,1280.000000) scale(0.100000,-0.100000)"
fill="#000000" stroke="none">
<path d="M5070 12034 c-95 -15 -145 -30 -215 -64 -212 -102 -331 -269 -354
-500 -5 -47 -19 -112 -32 -145 -17 -46 -22 -83 -23 -155 -1 -84 2 -99 22 -127
13 -18 36 -40 51 -49 27 -16 28 -21 34 -110 6 -92 34 -220 63 -294 23 -57 -2
-143 -64 -221 -42 -53 -57 -63 -152 -105 -413 -184 -673 -356 -890 -589 -285
-307 -561 -707 -810 -1172 -95 -178 -146 -302 -182 -448 -17 -73 -22 -120 -22
-245 -1 -85 3 -172 7 -192 7 -35 11 -38 42 -38 l35 0 1 -57 c0 -32 10 -240 23
-463 l23 -404 -38 -59 c-35 -53 -79 -153 -79 -177 0 -11 -13 -14 -125 -30
-128 -19 -335 -75 -457 -125 -176 -72 -388 -199 -438 -262 -41 -53 -34 -71
188 -487 114 -214 223 -407 243 -430 32 -36 41 -41 78 -40 32 1 51 10 87 40
168 142 317 229 444 258 132 31 367 12 478 -39 84 -39 128 -79 163 -152 44
-88 52 -201 20 -282 -52 -131 -154 -275 -350 -494 -448 -502 -571 -682 -667
-974 -74 -225 -100 -533 -60 -688 36 -139 118 -349 148 -380 l28 -30 385 -3
c418 -3 425 -2 461 53 19 29 17 55 -16 246 -23 127 -23 144 -12 245 26 232 98
397 257 589 36 44 166 181 289 305 321 325 432 458 544 652 158 278 205 704
116 1058 -29 114 -122 307 -193 401 -117 153 -305 306 -497 402 -90 45 -265
109 -336 122 -34 6 -38 11 -38 36 0 39 -33 123 -64 164 -14 19 -64 59 -111 90
l-85 57 0 153 c0 96 7 208 20 301 11 82 20 202 20 267 l0 117 31 0 c31 0 32 0
25 43 -15 94 -26 265 -20 322 12 121 43 176 122 221 154 87 177 111 212 224
39 125 64 145 246 199 171 51 239 87 373 199 40 34 76 62 80 62 3 0 44 -54 91
-120 251 -355 392 -644 450 -930 51 -253 76 -649 60 -990 -13 -292 -13 -1046
0 -1315 60 -1231 274 -2035 667 -2499 l59 -70 -42 -380 c-76 -687 -124 -1141
-124 -1168 0 -18 5 -28 15 -28 12 0 13 -5 4 -27 -23 -61 -41 -175 -46 -294 -8
-166 -2 -191 53 -244 l44 -43 0 -104 c0 -131 14 -161 91 -200 95 -48 295 -71
408 -47 59 12 124 57 146 99 42 82 27 179 -60 375 -48 108 -55 133 -69 245
-19 153 -19 160 -3 160 9 0 46 120 113 365 54 201 102 364 106 363 4 -2 118
-136 254 -298 136 -162 251 -294 256 -292 15 4 67 -120 83 -197 9 -42 19 -169
23 -314 9 -282 12 -292 91 -326 57 -24 79 -22 152 15 70 35 193 136 237 196
95 127 98 162 42 414 -24 108 -43 218 -44 258 l-1 68 35 12 c29 9 38 19 53 61
20 56 18 181 -4 248 -19 59 -75 114 -158 155 l-74 37 -320 550 -320 550 2 55
c7 174 193 1356 421 2677 69 396 70 405 69 575 0 95 -4 198 -9 228 l-9 55 42
38 c23 21 95 64 159 97 157 79 222 125 305 214 137 149 235 343 497 986 156
385 166 405 191 408 l28 4 -6 151 c-13 365 -98 496 -587 897 -123 102 -249
208 -279 235 -54 50 -133 149 -208 261 -49 72 -119 127 -241 189 -277 140
-547 200 -945 212 l-217 6 -66 70 -65 70 40 91 c41 94 80 217 101 321 8 42 24
76 52 113 63 84 91 146 91 200 0 26 -4 130 -10 232 -12 220 -27 266 -115 351
-63 60 -220 141 -318 163 -73 16 -182 26 -220 20z m1439 -2833 c125 -80 456
-290 623 -396 l157 -99 25 -81 c13 -44 32 -106 41 -137 16 -57 17 -58 53 -58
20 0 32 -4 26 -8 -6 -4 -30 -68 -53 -143 -33 -112 -259 -784 -314 -934 l-14
-40 -105 -1 c-96 -1 -111 -4 -186 -36 l-81 -35 -10 31 c-15 46 -94 360 -130
512 -86 368 -119 594 -130 874 -7 183 -4 560 4 588 6 18 13 16 94 -37z"/>
<path d="M2552 2050 c-196 -53 -352 -189 -452 -395 -67 -140 -81 -191 -87
-330 -5 -102 -2 -134 16 -205 35 -140 81 -221 191 -330 104 -105 178 -151 310
-191 97 -30 279 -33 380 -5 254 69 458 281 514 533 39 175 4 413 -85 584 -77
148 -231 279 -389 331 -96 31 -298 35 -398 8z"/>
</g>
</svg>
